<?xml version="1.0" standalone="no"?>
<!DOCTYPE svg PUBLIC "-//W3C//DTD SVG 20010904//EN"
 "http://www.w3.org/TR/2001/REC-SVG-20010904/DTD/svg10.dtd">
<svg version="1.0" xmlns="http://www.w3.org/2000/svg"
 width="1024.000000pt" height="1024.000000pt" viewBox="0 0 1024.000000 1024.000000"
 preserveAspectRatio="xMidYMid meet">
<g transform="translate(0.000000,1024.000000) scale(0.100000,-0.100000)"
fill="" stroke="none">
<path d="M0 9679 c0 -445 3 -560 13 -556 105 46 563 223 657 254 101 33 218
83 257 108 18 12 50 41 72 66 59 68 137 102 240 107 88 4 187 -10 234 -35 46
-23 107 -83 130 -127 17 -33 21 -58 20 -131 0 -78 -4 -99 -31 -156 -16 -37
-38 -75 -49 -86 -11 -11 -22 -27 -26 -36 -3 -9 -11 -17 -17 -17 -6 0 -9 4 -6
8 10 16 -17 83 -31 78 -9 -4 -13 3 -13 19 0 14 -5 25 -10 25 -6 0 -9 5 -8 12
2 7 -7 13 -20 14 -38 2 -36 12 4 20 80 14 123 51 131 112 4 34 1 44 -28 76
-31 36 -35 38 -84 33 -47 -4 -53 -2 -85 30 -69 69 -140 88 -211 59 -26 -11
-38 -25 -52 -62 -13 -35 -14 -50 -6 -60 8 -10 9 -14 0 -14 -6 0 -11 -9 -11
-19 0 -18 -39 -75 -40 -58 -1 23 -60 -51 -70 -88 -21 -75 8 -138 70 -155 33
-9 38 -14 34 -34 -4 -24 18 -42 37 -30 5 3 9 2 9 -3 0 -4 21 -19 46 -33 26
-13 42 -26 36 -28 -6 -2 -43 14 -84 36 -49 26 -99 43 -151 52 -71 12 -78 15
-83 39 -3 14 -14 55 -24 91 -10 36 -21 79 -25 95 -8 39 -30 71 -55 85 -17 9
-22 7 -32 -14 -6 -14 -20 -28 -32 -32 -20 -5 -140 -52 -462 -178 -78 -31 -151
-56 -163 -56 -12 0 -24 -7 -27 -15 -6 -16 11 -96 47 -218 l20 -69 42 7 c23 4
47 11 52 15 22 18 147 59 163 54 13 -4 14 -3 4 4 -10 6 3 15 45 30 73 27 241
80 305 97 l50 12 -36 -36 c-20 -20 -36 -42 -36 -49 0 -7 -4 -12 -8 -12 -18 0
-44 -119 -40 -189 l3 -71 -32 -16 c-18 -8 -33 -21 -33 -29 0 -9 -9 -15 -21
-15 -18 0 -20 -4 -15 -25 6 -22 3 -25 -19 -25 -20 0 -30 11 -54 59 -41 81 -77
120 -136 147 -67 32 -150 32 -228 0 l-57 -24 0 25 c0 32 -21 113 -29 113 -3 0
-5 -31 -3 -69 2 -44 -1 -78 -9 -93 -7 -13 -12 -26 -11 -30 1 -5 -3 -8 -8 -8
-7 0 -10 -1450 -10 -4330 l0 -4330 3542 0 c3372 0 3540 1 3526 18 -53 60 -72
152 -103 489 -14 155 -25 296 -25 314 l0 32 43 -39 c30 -28 41 -45 39 -60 -4
-25 23 -331 38 -419 14 -83 13 -128 -2 -123 -7 3 -18 -6 -25 -20 -14 -27 -8
-69 11 -74 7 -2 33 -28 58 -58 l44 -55 167 -3 c196 -3 191 -5 257 97 25 39 49
71 53 71 19 0 -30 -109 -66 -147 l-20 -23 1351 0 1352 0 0 1694 c0 1535 -1
1694 -16 1700 -48 19 -116 -17 -149 -78 -25 -46 -35 -46 -35 2 0 79 60 132
150 132 l50 0 -1 133 c-1 72 -3 124 -6 115 -2 -10 -10 -18 -16 -18 -8 0 -7 -4
1 -12 7 -7 12 -19 12 -27 -1 -13 -4 -12 -15 3 -20 27 -19 50 5 71 20 18 20 31
20 3265 l0 3247 -177 6 c-98 4 -2402 7 -5120 7 l-4943 0 0 -561z m7782 166
c123 -40 206 -139 215 -258 5 -64 0 -82 -60 -206 -22 -44 -87 -110 -103 -104
-8 3 -13 12 -10 20 3 8 2 11 -4 8 -13 -8 1 68 14 77 7 4 4 13 -7 26 -9 10 -17
24 -17 30 0 7 -4 12 -10 12 -5 0 -10 5 -10 10 0 6 10 10 23 10 12 0 32 7 44
15 27 19 63 76 63 100 0 29 -68 105 -93 104 -18 0 -16 -3 11 -15 30 -13 52
-46 52 -79 0 -7 -11 -27 -25 -43 -27 -32 -71 -48 -104 -37 -24 7 -45 57 -38
92 3 16 -4 47 -18 80 -41 92 -122 118 -203 66 -46 -30 -66 -68 -60 -113 3 -16
2 -28 0 -25 -4 4 -32 -40 -32 -51 0 -2 10 -4 23 -5 14 0 5 -6 -23 -15 -25 -8
-60 -28 -78 -45 -30 -27 -33 -34 -27 -69 4 -21 14 -45 24 -54 23 -21 85 -46
115 -46 13 0 43 -10 65 -22 40 -21 41 -21 57 -2 15 19 15 19 10 -1 -4 -16 3
-24 32 -38 21 -10 52 -19 69 -19 69 -2 -6 -48 -79 -48 -15 0 -55 19 -89 42
-74 48 -132 68 -204 68 l-53 0 -15 43 c-41 115 -81 208 -99 227 -11 12 -18 23
-17 24 2 1 33 19 69 39 36 19 92 63 125 97 40 41 84 74 130 97 69 34 72 34
175 31 66 -3 126 -11 162 -23z m-6516 -79 c21 -16 23 -15 -61 -37 -27 -7 -92
-30 -144 -51 -52 -21 -96 -38 -98 -38 -1 0 -3 8 -3 18 0 25 25 47 85 73 105
47 187 59 221 35z m6363 -22 c41 -34 42 -75 2 -115 -42 -42 -102 -43 -138 -3
-43 47 -28 90 42 127 42 22 59 21 94 -9z m-1036 -46 c29 -33 81 -127 75 -133
-12 -12 -101 -44 -109 -39 -5 3 -25 36 -44 72 -19 37 -43 80 -54 97 -19 28
-19 30 -3 37 9 4 37 6 62 4 36 -3 50 -11 73 -38z m-6250 -115 c22 -21 55 -69
73 -108 l33 -70 -31 -13 c-73 -31 -81 -28 -108 35 -16 38 -43 76 -79 111 l-56
54 25 20 c37 30 92 19 143 -29z m6748 -10 c5 -14 6 -30 2 -34 -4 -4 -57 -26
-118 -47 -163 -59 -369 -137 -465 -176 -76 -31 -86 -33 -101 -20 -15 13 -17
12 -23 -8 -12 -47 -5 -76 43 -166 47 -88 66 -142 51 -142 -4 0 -28 -31 -54
-70 -48 -72 -63 -86 -50 -48 6 20 5 21 -9 10 -13 -11 -16 -10 -22 7 -3 12 -3
41 0 65 8 54 -23 136 -52 136 -20 0 -80 -20 -100 -33 -7 -5 -21 -10 -31 -12
-15 -3 -18 2 -14 22 3 16 1 24 -5 20 -6 -4 -15 11 -21 31 -7 21 -23 49 -37 62
-23 22 -27 23 -66 10 -23 -8 -58 -29 -77 -47 -19 -18 -36 -33 -38 -33 -11 0
-94 -98 -94 -112 0 -21 -6 -24 -53 -33 -34 -7 -37 -5 -37 16 0 33 56 128 106
181 73 78 111 105 184 133 65 25 76 26 112 16 62 -19 110 -15 181 13 36 14 70
26 75 26 6 0 48 17 94 38 45 22 139 58 208 81 68 23 174 62 235 86 168 66 162
65 176 28z m-5809 -50 c27 -24 22 -59 -14 -99 -38 -41 -79 -47 -121 -19 -31
20 -45 60 -30 84 27 44 130 66 165 34z m6216 -25 c7 -7 12 -29 12 -49 0 -29
-6 -43 -26 -58 -32 -25 -57 -26 -94 -4 -53 31 -57 82 -9 109 30 17 101 18 117
2z m620 -65 c11 -16 43 -71 72 -123 64 -115 173 -288 225 -356 47 -61 85 -140
85 -177 0 -62 98 -203 265 -382 198 -212 242 -277 231 -343 -10 -63 -222 -445
-352 -634 -40 -60 -71 -108 -69 -108 3 0 29 19 58 43 67 55 150 102 219 126
71 24 127 11 273 -63 135 -69 218 -130 318 -235 105 -111 169 -208 174 -269
21 -223 -276 -660 -562 -828 -27 -16 -59 -34 -70 -41 -88 -53 -142 -54 -280
-8 -60 21 -134 53 -163 71 -29 19 -58 34 -65 34 -22 0 -37 23 -37 56 0 42 9
64 26 64 21 0 17 17 -6 23 -11 3 -20 10 -20 15 0 6 39 -13 88 -42 58 -35 119
-62 181 -79 100 -29 123 -41 115 -61 -3 -7 7 -24 20 -39 24 -26 26 -27 46 -10
11 10 20 21 20 26 0 27 70 103 128 141 92 59 250 234 322 356 63 107 90 190
90 278 0 78 -1 82 -39 129 -59 73 -179 185 -246 228 -33 21 -103 55 -155 76
-73 28 -100 44 -115 68 -26 39 -38 39 -57 -3 -12 -24 -39 -47 -95 -81 -218
-132 -354 -290 -461 -537 -22 -51 -35 -99 -35 -124 0 -41 -1 -41 -20 -23 -20
18 -21 18 -49 -11 -15 -17 -32 -30 -37 -30 -9 0 -21 -34 -21 -63 0 -19 27 -52
42 -52 5 0 31 -40 57 -90 109 -208 114 -216 123 -203 8 10 11 10 15 1 2 -7 15
-13 27 -13 43 0 251 -240 474 -550 62 -85 127 -172 145 -193 l32 -39 6 -171
c4 -95 10 -202 14 -238 l7 -66 -28 -11 c-16 -6 -51 -18 -79 -28 -27 -9 -149
-50 -270 -91 -244 -82 -353 -112 -321 -87 11 7 32 14 48 14 30 0 39 24 13 34
-20 7 -19 26 1 26 10 0 14 6 10 15 -3 10 3 17 19 21 13 3 26 13 29 21 4 10 14
13 27 10 12 -3 18 -3 15 0 -3 4 22 14 56 24 35 9 110 31 168 49 58 17 122 36
144 41 l38 11 -8 81 c-5 45 -7 136 -6 202 l3 120 -46 52 c-29 33 -44 58 -39
65 4 7 4 10 -1 6 -9 -9 -34 20 -35 40 0 20 -43 79 -112 155 -35 38 -79 87
-100 110 -21 23 -35 48 -33 59 2 10 1 18 -3 18 -4 0 -18 17 -32 38 -14 20 -30
41 -37 45 -7 4 -13 12 -13 17 0 13 -37 50 -50 50 -13 0 -31 36 -22 45 4 3 0 5
-8 3 -10 -2 -14 3 -12 14 2 12 -2 16 -13 12 -8 -3 -15 -2 -15 3 0 6 -11 23
-25 39 -59 67 -105 132 -108 151 -3 24 -36 73 -36 56 -1 -6 4 -15 9 -18 6 -3
10 -11 10 -17 0 -6 -9 1 -20 15 -11 14 -20 30 -20 36 0 6 -5 11 -11 11 -5 0
-7 5 -4 10 3 6 2 10 -4 10 -5 0 -13 9 -16 20 -4 11 -10 18 -14 16 -9 -6 -18 1
-69 55 l-42 45 60 114 c33 62 74 126 90 142 17 15 30 35 30 44 0 9 15 41 34
72 99 166 182 313 254 447 118 224 327 590 383 672 50 73 43 88 -136 279 -101
108 -184 213 -268 342 -25 38 -48 62 -59 62 -10 0 -87 -24 -170 -54 -84 -30
-187 -64 -228 -76 -197 -58 -455 -148 -461 -161 -4 -8 -30 -64 -58 -125 -46
-104 -128 -245 -149 -258 -5 -3 -73 59 -151 139 -77 80 -145 145 -150 145 -4
0 -64 -18 -132 -39 -222 -70 -553 -173 -609 -189 -30 -8 -58 -18 -62 -21 -4
-3 -12 -87 -18 -186 -12 -207 -15 -225 -36 -225 -8 0 -52 22 -97 50 -133 80
-356 150 -482 150 -24 0 -101 -18 -172 -39 -70 -22 -177 -54 -238 -71 -60 -17
-227 -69 -370 -115 -143 -46 -271 -86 -285 -90 -14 -4 -47 -17 -75 -29 -27
-13 -115 -44 -195 -69 -80 -25 -275 -87 -435 -137 -159 -50 -301 -97 -315
-103 -16 -8 -43 -46 -73 -102 -87 -162 -398 -685 -436 -735 l-20 -25 -30 29
c-17 17 -31 36 -31 43 0 7 -6 10 -14 7 -7 -3 -16 2 -19 10 -4 11 -1 13 11 9
15 -6 14 -3 -2 15 -11 12 -27 22 -36 22 -9 0 -22 6 -29 13 -6 6 -16 12 -21 12
-26 0 -186 128 -352 281 -42 40 -45 40 -106 15 -26 -11 -87 -32 -137 -46 -49
-15 -180 -56 -290 -92 -110 -35 -240 -76 -290 -90 -49 -14 -95 -30 -102 -37
-6 -6 -19 -85 -28 -176 -9 -91 -29 -291 -45 -445 -16 -154 -31 -318 -35 -365
-14 -199 -69 -687 -78 -697 -3 -2 -25 17 -49 43 -55 60 -137 115 -241 163 -66
30 -85 44 -97 70 l-16 33 -27 -39 c-16 -22 -65 -65 -115 -98 -130 -88 -323
-294 -382 -410 -8 -16 -32 -58 -53 -91 -20 -34 -37 -72 -37 -84 0 -12 24 -68
52 -124 43 -81 69 -117 135 -183 71 -71 97 -90 188 -133 85 -41 110 -58 127
-85 25 -44 41 -44 67 -2 20 33 81 95 66 67 -4 -8 7 1 26 21 19 20 67 62 106
94 75 59 116 102 177 185 18 25 18 23 13 -95 -8 -165 -33 -440 -58 -620 -13
-96 -17 -151 -10 -153 11 -4 118 -74 144 -95 9 -8 17 -19 17 -24 0 -10 15 -18
90 -49 25 -10 82 -42 127 -71 44 -29 85 -53 91 -53 5 0 8 -14 6 -31 -5 -42
-13 -52 -29 -39 -8 7 -16 7 -19 2 -3 -6 4 -12 15 -15 12 -3 18 -10 14 -17 -5
-8 -11 -8 -19 -1 -7 6 -16 8 -19 4 -4 -3 -7 -1 -7 5 0 7 -5 12 -10 12 -22 0
-316 165 -390 219 -20 14 -60 37 -88 50 -60 28 -61 32 -37 158 22 115 53 335
61 438 8 102 15 99 -72 25 -69 -58 -174 -109 -240 -116 -58 -6 -63 -5 -168 50
-225 116 -327 214 -412 395 -30 62 -54 123 -54 135 0 13 31 85 69 162 122 245
319 492 473 592 63 41 183 91 220 92 29 0 222 -95 248 -123 14 -15 28 -27 31
-27 3 0 9 30 12 68 4 37 13 117 21 177 8 61 20 180 26 265 6 85 17 211 25 280
7 69 28 268 47 442 l33 318 130 40 c359 113 484 152 525 166 25 9 79 26 120
39 41 13 100 32 130 43 119 43 129 40 230 -63 36 -37 112 -105 170 -153 58
-47 107 -89 110 -92 3 -3 20 -16 38 -29 21 -14 31 -29 28 -38 -3 -8 -1 -11 4
-8 5 3 20 -1 34 -10 30 -20 23 -29 147 185 50 85 105 178 121 205 17 28 65
106 106 175 41 69 85 141 98 161 28 45 114 83 368 164 94 30 326 106 516 169
323 107 679 222 935 300 360 111 375 113 580 56 83 -22 178 -54 211 -70 34
-17 64 -30 68 -30 3 0 6 42 6 93 l0 93 -37 18 c-127 61 -448 159 -565 171 -49
5 -57 9 -62 30 -7 27 3 105 13 105 107 -1 443 -78 609 -140 45 -16 93 -30 105
-30 33 1 180 54 185 68 4 12 -66 49 -208 112 -131 57 -379 130 -499 146 -58 8
-109 18 -113 22 -11 11 23 92 46 111 17 14 43 11 246 -29 72 -14 278 -87 327
-116 61 -36 175 -149 201 -201 l21 -41 43 9 c40 9 479 148 597 189 l54 19 33
-27 c18 -14 62 -60 96 -102 35 -41 78 -90 96 -109 l34 -35 37 85 c33 73 45
113 67 216 6 29 39 46 177 88 187 56 543 174 675 223 119 44 123 46 117 71 -4
14 -14 35 -23 47 -80 101 -110 147 -180 269 -44 77 -89 154 -100 171 -17 28
-18 38 -9 78 6 25 14 46 18 46 4 0 16 -12 27 -27z m-6620 -16 c40 -36 25 -85
-37 -116 -34 -18 -40 -18 -60 -5 -12 9 -28 31 -36 51 -14 33 -14 38 2 56 23
25 72 46 92 39 9 -3 26 -14 39 -25z m6269 -19 c26 -52 -19 -128 -75 -128 -29
0 -92 62 -92 90 0 26 33 58 67 66 16 3 33 7 38 8 20 6 50 -12 62 -36z m-6639
-137 c10 -66 -16 -104 -78 -116 -34 -7 -70 29 -70 71 0 38 18 55 68 65 58 11
77 7 80 -20z m699 -224 c61 -111 136 -249 165 -307 l53 -105 0 -95 c0 -89 -2
-99 -35 -159 -45 -84 -155 -174 -157 -128 0 6 -4 19 -7 28 -5 11 7 27 40 54
57 47 83 102 84 175 0 49 -10 76 -74 212 -40 86 -101 207 -135 269 -82 151
-88 168 -72 218 6 23 15 41 19 41 4 0 57 -91 119 -203z m-447 129 c0 -78 -58
-134 -114 -108 -25 11 -60 76 -53 96 9 24 102 63 136 58 29 -4 31 -7 31 -46z
m6000 38 c70 -28 102 -119 65 -184 -14 -25 -14 -25 -15 13 0 84 -91 123 -180
77 -50 -25 -54 -33 -51 -94 l2 -51 -25 24 c-30 29 -34 73 -11 128 39 92 120
125 215 87z m-298 1 c11 -5 8 -19 -16 -67 -33 -67 -39 -132 -22 -230 l9 -48
-36 -15 c-63 -26 -91 -20 -122 25 -67 97 -158 150 -256 150 -57 0 -55 16 3 30
28 7 92 32 142 55 50 24 131 55 180 69 49 14 91 28 94 31 7 6 7 6 24 0z
m-6055 -265 c42 -25 56 -55 54 -108 -1 -35 -23 -102 -34 -102 -1 0 -2 23 -2
51 0 45 -4 54 -30 75 -61 49 -140 40 -195 -22 -31 -36 -41 -96 -20 -122 5 -7
1 -4 -11 6 -52 48 -15 184 61 224 47 25 135 24 177 -2z m5690 -30 c52 -31 78
-101 53 -140 -8 -12 -10 -9 -10 12 0 38 -44 86 -86 94 -69 13 -146 -43 -160
-116 -9 -44 -29 -32 -32 21 -3 53 22 100 70 129 44 26 122 27 165 0z m-6397
-246 c44 -38 63 -80 57 -127 -3 -22 -11 -45 -18 -51 -9 -8 -10 -8 -5 2 12 21
-2 59 -35 97 -28 31 -37 35 -80 35 -46 0 -51 -3 -108 -61 -34 -35 -61 -56 -65
-50 -15 23 17 96 59 138 41 41 45 43 103 43 51 0 66 -4 92 -26z m5087 -50 c21
-6 19 -10 -35 -69 -31 -34 -83 -99 -116 -144 l-58 -81 42 -98 c24 -53 56 -123
73 -155 16 -32 27 -61 23 -64 -3 -3 -33 -6 -67 -7 l-62 -1 -51 110 c-28 61
-55 112 -61 114 -23 9 -47 -60 -54 -152 l-6 -92 -54 -8 c-30 -4 -56 -5 -59 -2
-8 8 15 337 35 495 16 128 19 140 38 140 11 0 37 3 59 7 l38 6 -7 -99 c-4 -54
-11 -112 -16 -129 -8 -28 -5 -27 37 20 85 93 142 164 149 184 6 19 13 21 110
29 11 1 30 -1 42 -4z m-642 -127 c51 -29 75 -76 75 -147 -1 -126 -90 -227
-230 -263 l-55 -14 -10 -103 -10 -104 -46 -12 c-26 -6 -52 -14 -58 -18 -6 -4
-14 0 -17 8 -6 15 23 580 31 603 6 17 183 72 235 72 28 1 60 -8 85 -22z m3535
-2 c0 -20 -26 -70 -90 -175 -29 -46 -83 -148 -122 -225 -38 -77 -74 -144 -78
-150 -4 -5 -53 -93 -107 -195 -55 -102 -125 -230 -155 -285 -31 -55 -81 -147
-112 -205 -62 -114 -95 -173 -134 -235 -14 -22 -40 -67 -58 -100 -17 -33 -40
-75 -50 -92 -19 -32 -19 -33 4 -75 12 -24 92 -137 177 -253 84 -115 193 -266
240 -335 47 -69 111 -156 141 -195 113 -145 129 -165 136 -184 5 -15 3 -18
-12 -14 -24 6 -57 39 -107 104 -40 52 -53 60 -53 31 0 -23 -19 -42 -42 -42
-10 0 -18 -4 -18 -9 0 -5 -13 -14 -30 -20 -16 -5 -30 -7 -30 -4 0 3 -21 -11
-46 -32 -37 -30 -62 -41 -132 -56 -123 -26 -162 -38 -162 -49 0 -5 20 -31 45
-57 25 -25 45 -54 45 -63 0 -26 39 -70 55 -63 10 3 13 0 10 -8 -6 -16 1 -26
98 -163 66 -93 68 -95 95 -85 27 11 399 142 460 162 17 6 32 16 32 24 0 7 -17
32 -38 56 -101 111 -152 179 -152 201 0 49 36 18 153 -128 66 -81 117 -149
115 -151 -1 -2 -109 -39 -238 -83 -129 -44 -273 -94 -320 -111 l-85 -30 -22
27 c-69 83 -214 276 -368 492 -97 135 -203 283 -237 330 -149 205 -216 300
-220 311 -2 7 -78 -14 -223 -64 -284 -97 -295 -102 -295 -143 0 -17 -3 -46 -7
-64 -7 -39 -26 -42 219 29 97 28 181 51 187 51 12 0 15 -128 3 -146 -4 -6 -79
-36 -167 -67 -88 -32 -180 -65 -205 -75 l-45 -18 -3 -72 c-3 -64 -1 -72 15
-72 15 0 172 52 342 114 66 24 69 23 64 -31 -9 -102 -12 -112 -46 -129 -18 -9
-55 -34 -84 -55 -29 -22 -59 -39 -68 -39 -8 0 -15 -4 -15 -9 0 -5 -15 -9 -32
-10 -35 0 -129 -28 -162 -48 -18 -10 -18 -12 -3 -27 9 -10 18 -12 22 -6 3 5
17 10 31 10 13 0 24 5 24 10 0 6 9 10 21 10 24 0 122 40 127 52 2 4 15 8 28 8
13 0 24 5 24 10 0 6 23 10 50 10 30 0 50 4 50 11 0 6 9 9 19 6 23 -6 26 10 37
161 3 50 10 95 15 98 16 10 11 140 -6 154 -12 10 -14 28 -9 94 7 79 14 96 43
96 11 0 12 -21 8 -112 -4 -62 -11 -205 -16 -316 -6 -112 -14 -209 -19 -215 -6
-7 -12 -21 -14 -32 -3 -14 -7 -9 -12 18 -5 20 -11 37 -15 37 -19 -1 -125 -31
-186 -53 -115 -41 -192 -74 -228 -99 -25 -18 -28 -25 -26 -77 1 -31 -2 -121
-6 -200 -8 -142 -8 -143 13 -132 26 14 180 64 302 97 52 15 100 32 107 38 17
15 33 125 33 224 0 82 12 128 30 117 5 -3 8 -36 5 -73 -3 -37 -7 -119 -11
-182 l-6 -116 -56 -13 c-81 -19 -381 -115 -417 -134 -17 -8 -48 -19 -69 -22
-38 -8 -38 -7 -33 21 3 16 9 112 12 214 10 307 35 910 40 985 5 70 29 671 40
1030 4 105 13 282 21 394 8 112 14 229 14 261 0 34 5 61 13 67 17 14 106 44
282 97 232 69 275 80 285 70 6 -6 4 -70 -5 -164 -7 -85 -16 -240 -20 -345 -4
-104 -13 -253 -20 -330 -8 -77 -17 -180 -20 -230 -7 -105 -19 -158 -41 -179
-14 -15 -33 -116 -21 -116 15 0 57 78 143 262 51 110 122 248 157 307 36 59
86 149 112 201 25 51 68 127 94 169 57 92 209 367 283 511 l53 105 140 46 c77
25 203 65 280 88 77 23 158 51 180 61 50 23 55 24 55 5z m-4007 -107 c-2 -5
-3 -145 -3 -312 l0 -303 -45 -13 c-25 -7 -48 -17 -51 -21 -19 -31 -23 5 -17
141 4 94 3 150 -3 150 -6 0 -28 -34 -49 -75 -21 -42 -54 -94 -73 -116 l-35
-40 -24 23 c-14 13 -37 46 -51 73 l-27 50 -5 -162 c-3 -89 -8 -164 -11 -168
-4 -3 -29 -15 -56 -25 l-50 -19 -6 314 c-3 172 -8 318 -9 324 -2 7 21 20 49
30 61 21 55 24 117 -71 33 -52 49 -85 70 -143 6 -15 21 12 65 115 84 196 96
217 139 240 35 19 80 23 75 8z m4127 -46 c0 -15 -18 -58 -38 -97 -21 -38 -83
-153 -139 -255 -55 -102 -138 -259 -185 -350 -123 -238 -238 -460 -259 -500
-24 -44 -24 -50 1 -45 13 3 20 -2 21 -13 0 -10 3 -12 6 -4 2 6 12 12 21 12 22
0 102 -29 83 -30 -12 0 -12 -3 -3 -12 10 -10 15 -10 22 2 8 13 10 12 10 -3 0
-10 5 -15 10 -12 6 4 17 1 25 -5 12 -10 15 -9 16 6 1 14 3 13 9 -6 5 -15 8
-19 9 -8 1 14 6 15 30 8 16 -4 33 -5 37 -2 11 11 -103 -203 -158 -295 -27 -46
-52 -83 -55 -83 -3 0 -32 25 -64 55 -73 67 -181 145 -202 145 -9 0 -19 4 -22
10 -6 10 93 206 240 475 48 88 150 279 227 424 219 413 338 622 350 615 4 -3
8 -17 8 -32z m-4775 -302 c8 -16 15 -37 15 -46 0 -35 -45 -87 -158 -180 -64
-53 -203 -184 -309 -290 -236 -239 -257 -248 -163 -68 51 98 60 110 159 222
60 69 373 361 406 380 29 17 33 15 50 -18z m3451 -100 c-2 -25 -10 -114 -16
-199 -7 -85 -18 -173 -25 -195 l-13 -41 -1 65 c-1 103 17 429 25 442 15 24 35
-26 30 -72z m-5351 -131 c106 -33 204 -150 205 -244 0 -48 -12 -64 -45 -57
-25 4 -28 11 -40 70 -5 24 -18 40 -47 58 -38 24 -41 25 -59 8 -18 -16 -20 -16
-37 0 -88 85 -138 110 -198 101 -52 -7 -87 -38 -143 -122 -16 -23 -31 -40 -35
-36 -3 3 -6 -5 -6 -18 0 -32 -100 -134 -101 -104 0 11 -3 14 -6 8 -3 -10 -8
-9 -20 2 -20 20 -29 19 -29 -5 0 -11 4 -20 9 -20 5 0 4 -6 -2 -14 -6 -7 -10
-24 -8 -37 4 -26 -11 -79 -22 -79 -4 0 -14 12 -21 26 -13 23 -19 25 -78 23
l-63 -2 -24 41 c-13 23 -21 42 -17 42 3 0 1 5 -6 12 -7 7 -36 13 -64 15 -40 2
-49 0 -38 -8 13 -9 12 -10 -2 -5 -10 3 -32 -1 -50 -9 -18 -8 -28 -14 -21 -15
7 0 10 -7 6 -16 -3 -9 -15 -14 -32 -12 -17 2 -32 -4 -44 -20 -10 -12 -23 -19
-29 -16 -6 4 -8 3 -5 -3 3 -5 -5 -32 -18 -59 -26 -52 -31 -79 -16 -88 11 -7
11 -56 0 -56 -5 0 -12 14 -16 32 -6 31 -6 31 -16 7 l-10 -24 -7 25 c-5 16 -8
-6 -9 -64 -1 -94 -7 -104 -22 -37 -18 80 25 217 95 305 38 47 157 142 203 161
70 29 159 29 248 0 16 -5 17 -5 5 4 -11 8 8 21 90 59 74 35 125 67 173 109 83
75 140 95 242 86 39 -3 97 -14 130 -24z m1925 -101 c-1 -29 -6 -63 -13 -75
-23 -41 -425 -441 -487 -484 -100 -70 -119 -81 -135 -75 -33 12 -10 50 109
183 166 185 493 503 518 503 4 0 8 -24 8 -52z m2054 -58 c43 -11 104 -34 136
-51 158 -84 261 -274 264 -484 2 -159 -21 -421 -44 -503 -24 -85 -107 -275
-153 -347 -69 -110 -215 -262 -311 -322 -74 -47 -276 -118 -598 -210 -13 -4
-15 0 -11 15 5 20 50 36 233 83 175 44 374 149 480 251 119 116 266 352 319
515 28 84 41 177 41 303 0 68 4 100 9 90 6 -8 7 -18 5 -22 -3 -4 0 -16 5 -25
8 -14 10 -4 10 42 0 41 -3 54 -9 40 -8 -22 -10 -17 -26 100 -7 43 -9 30 -20
-100 -7 -82 -17 -184 -24 -225 -50 -331 -295 -676 -577 -811 -90 -43 -138 -63
-303 -124 -19 -8 -73 -29 -118 -49 -46 -20 -116 -45 -155 -55 -131 -35 -292
-83 -309 -93 -15 -7 -18 -22 -18 -77 l0 -69 68 27 c55 23 293 91 316 91 4 0 2
-10 -5 -21 -11 -21 -8 -87 6 -120 5 -14 -9 -22 -82 -44 -48 -15 -140 -44 -203
-64 l-115 -38 -3 -76 c-2 -42 0 -77 3 -77 3 0 45 15 93 34 114 43 302 99 310
91 9 -9 -15 -22 -73 -41 -27 -8 -59 -19 -70 -24 -11 -4 -60 -22 -110 -39 -120
-42 -124 -45 -102 -69 10 -11 17 -35 17 -60 0 -42 0 -42 37 -42 44 0 34 -18
-13 -23 -16 -2 -50 -14 -74 -28 -39 -21 -46 -30 -53 -69 -5 -26 -5 -51 0 -60
5 -9 6 -68 1 -144 -4 -71 -6 -131 -3 -134 6 -6 374 100 391 113 18 13 38 195
61 548 3 49 9 77 17 77 9 0 9 -32 0 -139 -6 -76 -15 -144 -19 -151 -4 -7 -2
-16 4 -20 9 -5 10 -48 5 -168 l-7 -161 -221 -71 c-122 -39 -245 -80 -274 -92
-29 -11 -55 -19 -57 -17 -2 3 7 180 20 394 24 391 28 465 65 1130 11 198 27
468 35 600 9 132 20 310 25 395 5 85 12 198 16 252 l6 96 72 25 c115 41 611
197 736 233 140 40 238 44 354 14z m-2944 -65 c7 -8 15 -34 17 -58 5 -39 2
-46 -27 -70 -17 -15 -40 -27 -50 -27 -24 0 -50 26 -50 49 0 28 29 104 43 113
20 13 54 9 67 -7z m-1100 -203 c19 -16 21 -24 15 -60 -4 -23 -14 -51 -24 -63
-16 -19 -20 -20 -59 -8 -34 10 -42 17 -42 36 0 14 -7 31 -15 39 -20 20 -19 30
5 54 26 26 89 27 120 2z m390 -104 c61 -146 101 -273 107 -343 4 -53 2 -61
-16 -72 -19 -12 -21 -10 -27 15 -24 108 -40 153 -94 263 -51 103 -60 130 -55
158 9 46 23 81 33 81 4 0 28 -46 52 -102z m2230 -95 c0 -54 -4 -156 -10 -228
-5 -71 -14 -211 -19 -310 -18 -308 -51 -842 -81 -1300 -6 -88 -18 -209 -26
-270 -8 -60 -19 -189 -25 -285 -5 -96 -13 -215 -17 -264 l-7 -89 -55 -18 c-94
-30 -251 -77 -343 -104 -49 -14 -107 -35 -129 -46 -28 -15 -44 -17 -51 -10
-12 12 4 285 28 496 18 153 52 560 65 780 5 94 12 188 15 210 3 22 10 112 15
199 12 171 24 218 76 279 15 18 47 75 71 127 52 113 118 241 147 290 12 19 28
48 35 65 11 27 7 25 -38 -20 -81 -79 -190 -244 -299 -450 -55 -104 -125 -234
-156 -289 -31 -54 -56 -100 -56 -101 0 -8 -103 -217 -126 -255 -15 -25 -54
-98 -88 -163 -34 -64 -77 -148 -97 -185 -20 -37 -68 -129 -107 -205 -40 -76
-88 -162 -107 -193 -19 -30 -35 -57 -35 -59 0 -9 -108 -173 -118 -179 -17 -10
-102 126 -259 414 -50 91 -151 275 -225 410 -118 216 -165 301 -315 577 -19
35 -55 89 -81 122 -26 33 -53 67 -60 78 -33 47 4 -51 68 -182 37 -77 80 -169
95 -205 15 -36 48 -105 73 -155 l45 -90 -12 -160 c-7 -88 -21 -245 -32 -350
-58 -565 -89 -897 -109 -1180 -6 -82 -13 -157 -16 -165 -4 -15 -376 -149 -511
-184 -63 -17 -59 -36 -38 179 8 83 21 236 30 340 8 105 26 300 40 435 14 135
37 360 50 500 14 140 27 271 30 290 3 19 16 159 30 310 14 151 36 379 50 505
14 127 25 248 25 271 l0 40 278 88 c152 48 298 95 325 106 l48 18 13 -21 c73
-123 144 -257 464 -879 l45 -87 32 72 c46 106 276 554 328 639 48 79 226 401
328 592 l64 120 95 32 c128 44 611 192 633 193 4 1 7 -43 7 -96z m-2823 12
c12 -3 33 -19 47 -35 20 -24 23 -35 16 -63 -12 -54 -24 -67 -30 -32 -8 45 -63
78 -121 72 -65 -6 -105 -37 -123 -95 l-15 -47 0 42 c-2 94 39 144 132 162 42
9 53 8 94 -4z m7468 -45 c87 -30 144 -66 151 -97 6 -23 1 -32 -36 -64 l-44
-38 13 -51 c15 -59 9 -96 -16 -96 -10 0 -79 -15 -153 -34 -130 -33 -134 -35
-98 -44 42 -11 44 -15 40 -103 l-4 -64 -46 7 c-26 3 -54 13 -63 20 -9 8 -18
12 -21 9 -3 -3 -25 13 -50 35 -51 44 -58 47 -58 24 0 -9 -8 -29 -17 -45 -16
-27 -18 -28 -36 -12 -15 14 -20 15 -27 3 -6 -9 -12 -1 -20 31 -33 120 53 314
183 415 47 36 210 124 231 124 7 0 39 -9 71 -20z m-6059 -144 c26 -8 72 -46
56 -46 -7 0 -12 -7 -12 -15 0 -27 -42 -126 -63 -150 -12 -13 -37 -26 -54 -30
-32 -6 -33 -6 -33 27 0 63 21 153 47 197 14 24 28 39 32 34 3 -6 16 -13 27
-17z m3050 -994 c-35 -49 -45 -69 -27 -58 8 5 41 -67 41 -91 0 -16 53 -59 99
-79 41 -18 51 -35 51 -92 0 -29 -7 -37 -67 -76 -38 -24 -90 -55 -118 -68 -56
-28 -294 -108 -322 -108 -10 0 -42 16 -70 35 -29 19 -56 35 -60 36 -4 0 -33
18 -63 39 -30 22 -76 51 -102 65 -27 14 -48 29 -48 33 0 4 37 18 83 32 147 43
309 110 361 147 91 65 204 163 237 204 44 56 49 40 5 -19z m-4772 -138 c10
-37 0 -57 -36 -77 -50 -26 -147 -57 -162 -51 -7 3 -12 20 -12 38 1 40 32 65
117 96 72 26 86 25 93 -6z m5832 -266 c-1 -199 -1 -202 21 -213 12 -7 31 -23
42 -36 10 -13 48 -42 85 -63 36 -21 71 -45 78 -53 10 -13 13 -13 19 4 4 10 8
-45 8 -122 1 -97 -3 -145 -11 -153 -27 -27 -77 -10 -196 65 -104 65 -102 61
-96 177 15 312 38 596 49 596 1 0 2 -91 1 -202z m-3521 -45 c-21 -59 -294
-605 -363 -728 -28 -49 -47 -92 -43 -95 5 -3 12 -16 16 -29 5 -18 4 -22 -6
-16 -8 4 3 -9 24 -29 21 -20 42 -34 46 -32 7 5 51 -30 111 -90 14 -14 29 -22
32 -18 12 12 2 -21 -12 -42 -20 -29 -138 -104 -163 -104 -14 0 -235 130 -266
157 -3 2 11 20 31 41 55 57 190 267 280 436 44 83 107 198 138 256 32 58 86
160 121 227 65 125 85 150 54 66z m1671 -245 c-4 -73 -9 -167 -12 -208 -4 -69
-3 -77 18 -96 13 -12 48 -45 78 -73 96 -91 162 -137 179 -126 7 4 11 -9 12
-37 2 -86 -3 -323 -7 -327 -2 -2 -20 11 -41 29 -46 41 -271 190 -285 190 -13
0 -4 276 12 375 5 33 14 114 19 180 15 162 22 225 28 225 3 0 2 -60 -1 -132z
m3463 -112 c67 -54 125 -105 128 -113 9 -22 -16 -39 -87 -57 -36 -10 -123 -35
-195 -56 -71 -21 -172 -50 -224 -65 l-93 -25 -46 37 c-56 47 -194 154 -219
169 -10 7 -16 14 -13 16 13 12 606 203 616 198 5 -3 65 -50 133 -104z m-2545
-165 c3 8 3 -39 0 -103 -5 -109 -4 -119 15 -147 12 -16 37 -39 56 -51 19 -12
35 -25 35 -29 0 -8 -99 -29 -170 -37 -31 -3 -29 -2 11 10 75 22 89 33 40 33
-53 0 -62 9 -51 53 4 19 8 31 9 27 1 -5 8 -1 17 8 23 22 26 130 4 130 -25 0
-34 25 -14 40 11 7 22 11 26 9 5 -3 9 1 9 8 2 18 1 20 -6 43 -5 15 -4 16 3 6
8 -11 11 -11 16 0z m855 -76 c29 -25 57 -45 62 -45 18 0 8 -15 -18 -28 -16 -7
-64 -41 -108 -76 -43 -36 -83 -62 -89 -59 -5 3 -6 1 -2 -5 7 -11 -9 -25 -32
-28 -20 -3 -28 -14 -11 -14 19 0 -39 -34 -83 -49 -34 -11 -41 -10 -95 20 -87
48 -245 161 -236 170 5 4 91 31 193 59 102 29 217 62 255 75 39 13 79 24 91
24 11 1 44 -19 73 -44z m-4728 -240 c-24 -205 -41 -439 -41 -555 l1 -85 36
-27 c20 -16 42 -28 49 -28 7 0 23 -13 36 -30 17 -22 33 -30 60 -32 20 -2 34
-6 31 -10 -2 -5 -1 -9 4 -9 39 -6 59 -5 65 5 5 7 8 6 8 -4 1 -8 7 -1 15 15 13
27 14 18 9 -95 -4 -69 -9 -143 -13 -165 -6 -39 -7 -39 -66 -51 -33 -6 -75 -17
-93 -22 -38 -12 -41 -12 -139 31 -72 32 -72 32 -73 72 0 64 28 404 49 590 11
94 22 199 26 235 3 36 15 127 26 203 10 75 20 159 21 185 l2 47 4 -50 c2 -27
-6 -126 -17 -220z m7371 148 c25 -22 23 -59 -4 -77 -25 -16 -175 -65 -353
-116 -236 -68 -552 -159 -598 -173 -44 -14 -48 -14 -57 3 -12 22 -13 70 -2 87
15 23 93 49 397 133 77 22 230 66 340 99 215 65 249 70 277 44z m-8530 -14
c44 -9 62 -20 106 -66 73 -74 117 -173 77 -173 -8 0 -14 -3 -14 -7 5 -29 -4
-33 -66 -33 -50 0 -66 4 -74 18 -9 14 -10 10 -11 -19 0 -19 -9 -63 -21 -97
-27 -81 -85 -134 -177 -162 -35 -11 -73 -20 -83 -20 -25 0 -24 -12 1 -30 11
-8 20 -18 20 -23 0 -5 13 -26 29 -46 32 -41 48 -81 32 -81 -6 0 -11 5 -11 11
0 5 -4 8 -8 5 -5 -3 -24 3 -43 13 -19 10 -57 26 -86 35 -67 22 -125 84 -149
159 -15 49 -16 64 -5 126 27 151 114 273 251 356 83 49 127 56 232 34z m6366
-14 c59 -18 127 -66 159 -114 32 -47 64 -138 70 -198 7 -62 14 -57 -162 -103
-60 -16 -120 -32 -132 -36 -19 -5 -22 -1 -29 43 -9 65 -20 82 -59 99 -51 21
-86 17 -136 -14 -88 -56 -128 -131 -109 -203 14 -52 62 -73 243 -102 174 -29
244 -59 294 -124 94 -125 110 -360 36 -508 -124 -245 -328 -379 -580 -378 -80
0 -99 4 -155 30 -78 37 -133 91 -166 162 -28 61 -52 196 -36 210 5 5 62 26
127 45 65 20 127 41 137 46 35 19 50 12 50 -22 1 -54 33 -112 73 -131 70 -33
149 -12 224 59 72 68 83 183 24 236 -31 27 -53 33 -251 68 -184 33 -248 72
-311 190 -22 40 -24 57 -24 165 1 106 4 128 28 190 95 240 316 404 548 405 48
0 108 -7 137 -15z m532 -357 c36 -30 71 -67 78 -82 8 -15 16 -69 19 -119 4
-75 1 -102 -15 -147 -13 -38 -24 -54 -35 -52 -8 1 -44 31 -79 65 -84 82 -179
141 -220 135 -36 -6 -111 17 -88 26 8 4 46 16 85 29 l70 22 8 50 c4 28 5 90 1
139 l-6 89 58 -50 c33 -28 88 -75 124 -105z m1619 127 c34 -17 45 -40 31 -66
-19 -35 -39 -42 -580 -185 -179 -48 -345 -95 -400 -114 -30 -11 -74 -22 -98
-26 l-43 -7 3 48 c5 78 -16 69 603 242 347 97 438 122 448 122 4 1 21 -6 36
-14z m-4486 -78 c23 -19 70 -49 105 -68 l63 -34 -78 -7 c-119 -10 -292 -74
-374 -139 -20 -16 -40 -29 -43 -29 -16 0 -245 145 -239 151 5 4 73 26 153 48
80 22 190 56 245 75 55 19 106 35 113 35 8 1 32 -14 55 -32z m1280 -11 c73
-35 138 -108 168 -188 20 -54 24 -81 24 -183 0 -236 -17 -621 -31 -689 -20
-99 -92 -242 -160 -315 -97 -105 -242 -186 -378 -212 -57 -11 -148 2 -211 30
-57 26 -126 91 -158 149 -42 76 -47 129 -36 324 5 95 13 272 18 393 10 245 18
283 87 397 57 96 184 218 272 262 104 52 162 66 263 63 69 -2 96 -8 142 -31z
m3232 -191 c14 -13 25 -36 25 -50 0 -38 -37 -51 -385 -140 -165 -42 -358 -94
-430 -117 -161 -50 -232 -59 -258 -31 -13 16 -15 26 -8 45 16 44 30 50 276
119 210 59 361 99 465 124 58 13 139 35 180 49 94 32 105 32 135 1z m-5388
-38 c15 -13 52 -38 81 -56 29 -19 51 -39 49 -44 -2 -6 -31 -17 -65 -24 -34 -7
-71 -17 -81 -23 -11 -5 -66 -21 -123 -36 -56 -14 -138 -36 -181 -50 l-78 -24
-52 36 c-28 20 -67 42 -85 50 -18 7 -31 18 -28 23 8 12 103 43 231 75 55 14
143 40 195 59 52 19 98 35 102 36 3 0 19 -9 35 -22z m988 -8 c146 -27 234
-105 285 -255 37 -106 39 -103 -118 -154 -75 -25 -141 -45 -146 -45 -5 0 -15
20 -22 45 -20 70 -53 95 -124 95 -53 0 -62 -3 -106 -41 -79 -66 -122 -130
-128 -189 -5 -53 -25 -401 -33 -592 l-5 -112 29 -30 c16 -16 48 -35 71 -42 35
-10 48 -9 84 4 54 21 114 69 134 110 13 24 37 237 27 237 -2 0 -96 -18 -130
-26 -22 -4 -23 -2 -23 84 0 49 3 117 6 150 6 58 8 61 38 67 17 4 85 22 151 42
66 19 149 43 184 53 36 10 69 16 74 13 12 -7 0 -341 -18 -508 -8 -71 -19 -182
-25 -245 -12 -124 -20 -140 -71 -140 l-27 0 16 32 c9 19 19 74 23 128 12 155
18 277 13 247 -3 -17 -15 -32 -30 -39 -13 -6 -24 -19 -24 -30 0 -18 -16 -23
-44 -12 -12 5 -16 21 -17 68 -2 108 -15 120 -22 21 -4 -49 -11 -105 -16 -123
-23 -77 -142 -181 -230 -201 -85 -19 -188 28 -222 102 l-20 42 7 -39 c8 -44
-3 -56 -52 -56 -45 0 -84 21 -84 47 0 12 -4 25 -10 28 -6 4 -10 -12 -10 -41 0
-63 30 -123 94 -188 41 -42 63 -55 112 -69 141 -40 265 -1 391 122 44 43 78
57 112 46 19 -6 20 -8 7 -34 -14 -26 -95 -86 -196 -144 -112 -65 -292 -75
-402 -23 -62 29 -124 91 -160 158 -22 42 -23 50 -21 263 2 266 27 632 49 706
64 216 267 411 483 464 71 17 76 17 146 4z m-740 -364 l-7 -131 -41 -10 c-23
-6 -114 -32 -202 -59 -88 -26 -182 -53 -210 -60 l-50 -11 -8 -148 c-5 -82 -6
-150 -4 -152 2 -3 47 9 98 25 182 58 334 99 342 92 4 -4 0 -54 -8 -112 -8 -57
-15 -127 -15 -155 l0 -51 -97 -27 c-54 -15 -145 -38 -203 -52 -58 -13 -112
-27 -121 -29 -12 -4 -17 -35 -26 -163 -6 -86 -9 -159 -7 -161 3 -3 21 0 42 6
20 6 89 25 152 43 63 17 157 45 209 62 51 16 95 27 98 24 3 -3 1 -74 -6 -158
-13 -168 -15 -173 -80 -184 -20 -3 -101 -23 -181 -44 -80 -22 -167 -44 -195
-51 -27 -6 -112 -29 -187 -50 -172 -49 -171 -49 -164 -1 5 33 16 206 31 522
11 214 65 983 69 988 4 3 297 89 606 176 52 15 111 33 130 40 34 12 35 11 38
-13 2 -15 1 -85 -3 -156z m3348 33 c14 -13 81 -70 151 -127 141 -117 144 -121
132 -242 -17 -183 -90 -346 -159 -353 -15 -2 -27 1 -27 5 0 5 8 9 18 10 11 0
12 2 4 6 -7 3 -20 -1 -28 -8 -9 -7 -32 -12 -51 -10 -22 2 -33 -1 -29 -7 3 -6
2 -13 -4 -17 -10 -6 -15 9 -10 30 1 5 -2 7 -6 2 -7 -7 -12 -27 -16 -69 -1 -9
-6 -14 -11 -11 -4 2 -5 14 -2 26 2 12 2 16 -1 8 -5 -11 -8 -11 -16 0 -5 9 -6
5 -2 -13 6 -28 -3 -34 -45 -29 -7 2 -10 -2 -6 -9 4 -7 16 -10 26 -7 11 3 19 2
19 -3 0 -4 -9 -10 -20 -13 -11 -3 -20 0 -20 6 0 8 -4 7 -12 -1 -14 -14 -42
-16 -33 -2 3 5 1 18 -4 27 -10 17 -10 17 -11 1 0 -10 -5 -18 -11 -18 -5 0 -8
4 -5 9 3 5 0 11 -7 14 -7 3 -13 -3 -13 -13 0 -10 4 -16 8 -14 4 3 8 0 8 -6 0
-6 5 -8 13 -4 7 5 6 0 -3 -11 -14 -16 -13 -17 5 -12 11 4 27 2 35 -4 12 -8 10
-9 -7 -4 -14 4 -23 2 -23 -4 0 -6 5 -11 11 -11 6 0 9 -6 6 -12 -4 -14 43 -38
74 -38 61 0 -40 -68 -154 -105 -43 -14 -97 -24 -120 -24 -35 2 -37 3 -12 7 26
3 20 7 -40 23 -38 10 -82 16 -96 13 -18 -3 -33 1 -45 13 -9 10 -19 16 -22 14
-2 -3 -42 18 -88 45 l-84 49 48 13 c196 54 226 65 304 111 119 70 214 172 272
293 61 128 81 223 80 376 -1 67 0 122 2 122 1 0 14 -10 27 -22z m2147 -112 c0
-15 -7 -27 -17 -30 -131 -38 -233 -66 -253 -69 -14 -2 -38 -9 -53 -16 -16 -6
-33 -9 -37 -6 -5 3 -12 -1 -17 -8 -9 -15 -144 -67 -174 -67 -35 0 0 37 61 64
55 24 79 33 305 101 66 20 131 40 145 45 38 13 40 12 40 -14z m-6414 -88 c-3
-46 -11 -164 -16 -263 -6 -99 -15 -216 -20 -260 -5 -44 -18 -192 -30 -330 -16
-204 -25 -265 -47 -334 -78 -247 -311 -422 -547 -409 -135 7 -226 62 -283 169
-27 52 -28 60 -28 189 0 74 8 243 17 375 10 132 22 317 28 410 5 94 13 198 16
231 l6 60 141 42 c77 24 142 41 144 38 6 -6 4 -232 -2 -270 -3 -17 -14 -161
-25 -321 -11 -159 -25 -341 -31 -403 -14 -132 -9 -151 56 -182 56 -27 83 -25
136 8 54 35 94 80 108 124 12 39 37 356 51 651 5 115 15 269 22 343 l11 134
41 11 c23 5 79 23 126 39 47 16 96 29 109 29 24 1 24 1 17 -81z m4819 -248
c-24 -122 -62 -237 -80 -237 -8 0 -15 4 -15 9 0 5 -9 6 -20 3 -14 -4 -20 -2
-21 9 -4 51 -3 87 3 136 4 30 10 82 14 115 6 59 23 111 24 73 0 -15 13 -16 58
-2 7 2 15 2 20 1 10 -3 19 47 23 128 3 57 4 49 6 -40 3 -72 -2 -139 -12 -195z
m-6298 68 c4 -7 6 -36 5 -64 -2 -27 2 -79 8 -114 14 -78 20 -73 -141 -135
l-118 -46 -63 39 c-56 34 -125 75 -223 130 -16 9 -32 18 -34 20 -26 15 175 86
360 127 58 13 121 30 140 38 43 19 56 20 66 5z m439 -100 c-3 -35 -13 -173
-21 -308 -14 -238 -21 -314 -50 -585 -8 -71 -19 -183 -25 -249 -15 -165 -48
-238 -163 -350 -167 -165 -380 -226 -532 -151 -133 65 -178 178 -160 409 9
125 -12 111 284 192 24 7 24 7 17 -57 -20 -204 -21 -192 9 -221 86 -86 236 -2
259 147 6 37 67 817 82 1053 6 96 9 105 30 114 46 21 210 66 243 67 l34 1 -7
-62z m7064 -238 c45 -12 96 -65 105 -107 9 -46 -5 -64 -19 -22 -13 40 -64 73
-112 71 -37 -1 -103 -32 -123 -56 -8 -9 -20 -16 -28 -16 -38 0 35 100 92 126
37 16 41 16 85 4z m-2990 -207 c0 -7 5 -13 12 -13 6 0 8 -3 5 -7 -4 -3 0 -14
9 -24 9 -10 17 -30 18 -44 1 -19 5 -25 19 -21 10 2 17 -1 17 -10 0 -12 33 -20
63 -15 4 0 7 -3 7 -8 0 -5 18 -12 40 -16 22 -4 40 -12 40 -19 0 -7 -15 -33
-34 -57 -26 -35 -53 -54 -132 -91 -93 -44 -216 -78 -281 -78 -15 0 -50 13 -78
29 -27 15 -97 52 -155 81 l-105 54 45 12 c73 21 222 85 265 114 22 16 74 64
115 107 l75 79 27 -30 c15 -17 28 -37 28 -43z m-4560 -279 l-12 -141 -62 -6
c-70 -7 -225 -50 -375 -104 -79 -29 -106 -44 -116 -63 -6 -14 -22 -80 -35
-147 -17 -93 -21 -146 -18 -225 4 -94 7 -109 40 -173 48 -93 109 -167 177
-212 31 -21 65 -45 76 -55 19 -16 24 -18 44 -18 5 0 12 -8 15 -18 3 -10 20
-26 37 -36 23 -13 28 -21 20 -29 -9 -9 -17 -8 -31 1 -15 9 -22 9 -34 -3 -12
-13 -27 -8 -115 36 -117 59 -222 152 -265 236 -47 93 -76 215 -76 318 0 145
62 358 123 423 43 46 117 83 263 131 123 40 264 76 217 55 -18 -8 -16 -21 3
-28 34 -13 49 9 49 73 0 51 3 61 17 61 9 0 20 10 23 21 5 15 10 18 15 9 9 -14
19 9 21 48 1 22 2 23 6 7 3 -11 0 -84 -7 -161z m3580 90 c53 -49 62 -80 34
-108 -16 -17 -13 -28 20 -64 12 -13 20 -24 18 -25 -13 -7 19 -41 69 -72 33
-20 58 -42 56 -48 -18 -56 -271 -144 -301 -106 -6 8 -23 22 -39 32 -25 16 -30
16 -49 2 -13 -8 -32 -15 -45 -15 -12 0 -28 -9 -36 -20 -8 -11 -17 -17 -20 -13
-4 3 -7 -6 -7 -20 0 -25 -2 -26 -40 -23 -27 3 -73 24 -141 66 -56 34 -113 68
-127 76 -24 12 -24 13 34 29 123 34 183 58 319 128 152 78 175 101 189 188 3
22 9 39 12 39 2 0 27 -21 54 -46z m-986 -323 c17 -14 39 -37 51 -50 33 -38
118 -121 144 -141 25 -17 25 -18 7 -46 -27 -42 -64 -72 -121 -98 -56 -26 -280
-87 -392 -106 l-71 -13 -144 71 c-134 67 -231 121 -217 122 14 0 342 91 414
114 44 14 106 32 137 41 65 17 81 37 93 115 13 85 14 87 43 50 15 -19 40 -45
56 -59z m4414 -181 c18 -11 31 -24 28 -29 -3 -4 -31 -11 -61 -15 -31 -3 -105
-22 -164 -41 -122 -40 -131 -41 -131 -20 0 26 46 61 108 83 131 47 172 51 220
22z m-5463 -143 c87 -55 230 -125 273 -133 37 -7 39 -17 13 -59 -21 -35 -46
-47 -231 -106 -167 -53 -249 -61 -300 -29 -89 56 -219 128 -252 141 -21 7 -38
15 -38 19 0 3 33 16 73 29 114 37 253 117 306 178 l46 52 20 -24 c11 -13 52
-43 90 -68z m3072 17 c32 -33 26 -77 -17 -116 -38 -35 -54 -35 -85 -2 -33 36
-33 87 0 119 31 32 69 32 102 -1z m1310 15 c46 -17 109 -75 152 -140 59 -88
56 -101 -26 -127 -37 -12 -67 -21 -68 -19 -1 1 -14 34 -29 73 -29 76 -84 142
-137 165 -38 15 -37 27 4 44 39 17 67 18 104 4z m1204 -29 c113 -35 207 -109
251 -199 18 -37 23 -62 22 -126 -2 -146 -52 -265 -151 -355 -88 -80 -153 -108
-261 -112 -47 -1 -59 3 -110 39 -100 70 -119 77 -212 77 -105 1 -170 -25 -231
-91 -89 -96 -114 -224 -64 -323 28 -55 34 -90 12 -71 -16 13 -27 5 -27 -19 0
-28 -81 -61 -160 -64 -20 -1 -39 32 -40 69 0 46 -42 126 -87 166 -55 50 -143
82 -209 77 -70 -6 -180 -64 -221 -116 -17 -23 -43 -77 -58 -121 -20 -62 -35
-88 -64 -114 -82 -74 -239 -94 -378 -48 -62 20 -80 32 -133 87 -98 102 -123
184 -96 312 25 118 60 184 137 257 77 72 194 142 254 150 22 3 72 2 110 -3 82
-11 148 4 380 86 252 89 565 192 584 192 17 0 156 51 264 97 21 9 59 40 83 69
81 95 255 131 405 84z m-2811 -62 c24 -26 24 -29 6 -73 -12 -28 -22 -36 -58
-45 -24 -6 -77 -19 -118 -30 -72 -19 -231 -60 -750 -191 -129 -33 -253 -64
-275 -69 -22 -4 -85 -20 -140 -35 -55 -15 -107 -28 -115 -28 -8 -1 -17 -5 -20
-9 -7 -9 -119 -38 -145 -37 -29 1 43 27 78 28 24 1 41 21 17 21 -5 0 -10 4
-10 9 0 5 9 7 20 4 16 -4 20 0 20 23 0 25 1 26 13 10 12 -16 14 -16 26 -2 8 9
20 16 27 16 17 0 19 20 2 21 -7 0 0 5 16 9 21 7 32 5 43 -6 18 -18 22 -18 44
2 11 10 19 12 24 5 3 -6 2 -11 -3 -11 -6 0 -12 -7 -16 -15 -7 -19 14 -15 32 5
8 8 11 9 7 3 -4 -9 2 -13 19 -13 14 0 26 5 26 10 0 6 8 10 18 10 10 0 22 3 26
8 4 4 17 7 29 8 45 2 87 17 87 30 0 8 -4 14 -10 14 -15 0 -12 40 3 40 6 1 37
3 67 6 30 3 70 6 88 7 19 1 32 7 32 16 0 8 7 11 20 8 13 -3 20 0 20 8 0 7 6
15 13 18 6 2 10 7 7 10 -3 3 -37 0 -75 -8 -131 -28 -90 -13 120 42 116 30 314
82 440 115 127 34 242 61 257 62 14 0 24 4 22 8 -4 6 12 13 38 17 4 0 16 -9
28 -21z m-3846 -105 c-9 -20 -32 -62 -51 -92 -22 -34 -28 -50 -17 -41 10 8 22
19 25 24 4 5 12 5 19 1 8 -5 9 -10 1 -14 -13 -8 -3 -51 13 -51 6 0 4 -5 -4
-11 -13 -9 -12 -10 3 -5 9 3 32 -3 50 -14 33 -20 21 -28 -14 -10 -11 6 -19 7
-19 1 0 -11 28 -18 113 -27 37 -4 67 -10 67 -14 0 -12 93 -18 114 -7 39 19
-17 -54 -83 -109 -69 -57 -109 -80 -181 -100 -25 -7 -78 -22 -119 -34 -46 -14
-89 -20 -112 -17 -21 3 -104 42 -188 88 l-150 84 65 21 c36 12 112 45 169 73
85 42 117 64 170 119 36 37 80 91 97 120 37 60 54 69 32 15z m4900 -234 c15
-12 24 -25 19 -29 -4 -4 -37 -13 -73 -20 -36 -6 -104 -27 -151 -46 -47 -19
-89 -34 -93 -34 -4 0 -6 12 -4 27 4 34 51 62 158 98 93 30 110 30 144 4z
m2163 -134 c14 -27 65 -120 113 -205 253 -449 245 -430 245 -540 -1 -76 -4
-92 -34 -153 -58 -115 -165 -188 -279 -190 -70 -1 -163 38 -213 89 l-34 35 70
-27 c100 -39 193 -39 257 -2 53 32 105 93 124 146 26 73 11 216 -23 229 -9 3
-34 45 -55 92 -49 106 -178 343 -193 353 -5 4 -6 8 -2 8 5 0 -5 26 -22 57 -36
66 -36 63 -15 133 17 59 17 59 61 -25z m-6706 -199 c6 -19 4 -29 -7 -33 -8 -3
-14 -11 -14 -18 0 -24 -200 -113 -325 -145 -131 -33 -224 -38 -269 -15 -15 8
-34 15 -42 15 -7 0 -15 4 -19 9 -3 6 8 8 25 6 16 -2 35 2 42 9 7 7 26 16 41
20 17 4 25 11 21 18 -5 8 4 9 31 5 21 -4 44 -3 49 2 6 5 34 11 61 14 28 2 42
3 33 0 -10 -2 -18 -8 -18 -13 0 -4 10 -5 23 -1 51 17 87 36 87 46 0 5 4 4 9
-4 7 -11 15 -11 44 -2 19 7 41 19 49 28 9 12 9 15 1 9 -7 -4 -13 -5 -13 -3 0
9 121 77 136 77 8 0 12 4 9 10 -4 6 2 7 17 1 12 -4 25 -20 29 -35z m5906 -36
c48 -21 83 -70 83 -116 0 -47 -48 -132 -93 -165 -76 -55 -157 -48 -231 21 -38
36 -41 42 -40 89 2 140 150 231 281 171z m-789 -261 c95 -46 123 -153 60 -225
-18 -20 -47 -43 -65 -50 -51 -22 -62 -16 -15 7 82 41 102 94 56 149 -68 80
-167 80 -224 -1 -30 -41 -24 -123 10 -151 12 -10 18 -18 13 -18 -18 0 -74 61
-89 95 -28 68 19 159 101 196 53 24 99 24 153 -2z"/>
<path d="M4594 8359 c-31 -9 -31 -10 -38 -90 -4 -45 -4 -84 -2 -87 3 -2 21 -1
40 2 72 14 124 88 107 153 -6 23 -13 28 -42 30 -19 1 -48 -2 -65 -8z"/>
<path d="M7519 6425 c-8 -8 -54 -26 -102 -40 -86 -25 -220 -85 -241 -109 -6
-6 -16 -20 -22 -31 -8 -15 -31 -33 -52 -41 -1 -1 0 -9 4 -18 13 -35 50 -38
117 -10 34 14 66 33 73 42 7 9 16 12 24 7 8 -5 11 -4 7 2 -9 14 43 37 56 24
11 -11 45 -2 131 38 37 17 70 31 74 31 4 0 13 4 21 9 11 7 10 15 -8 44 -12 19
-32 42 -45 50 -20 13 -25 14 -37 2z"/>
<path d="M7730 6161 c-23 -14 -183 -68 -298 -101 -57 -17 -121 -39 -143 -50
l-39 -20 26 -43 c49 -78 47 -77 117 -61 65 16 338 93 424 120 l52 17 -28 36
c-15 20 -40 53 -55 74 -29 39 -33 41 -56 28z"/>
<path d="M5330 7076 c-41 -13 -116 -36 -166 -51 l-91 -28 -7 -156 c-4 -86 -13
-230 -21 -321 -23 -256 -24 -280 -17 -280 4 0 78 21 165 46 175 52 241 86 299
155 59 70 76 133 90 328 10 153 10 173 -5 213 -20 52 -59 91 -106 107 -45 15
-53 14 -141 -13z"/>
<path d="M5011 6945 c-3 -136 -12 -301 -22 -390 -13 -120 -27 -329 -23 -334
14 -16 24 34 34 179 6 91 13 183 15 205 11 124 14 298 6 350 l-8 60 -2 -70z"/>
<path d="M4217 6733 c-4 -120 -11 -263 -16 -318 -14 -144 -21 -367 -11 -325 4
19 13 98 19 175 6 77 16 183 21 235 9 78 5 437 -4 448 -2 1 -6 -96 -9 -215z"/>
<path d="M4097 5871 l-49 -17 -1 -58 c-2 -64 -7 -61 78 -40 l27 7 -7 -74 c-4
-41 -4 -71 -1 -68 6 6 10 39 22 182 7 98 10 96 -69 68z"/>
<path d="M3182 5482 c-67 -130 -140 -268 -161 -307 -21 -38 -55 -101 -76 -140
-21 -38 -61 -104 -90 -145 -28 -41 -57 -90 -65 -107 -7 -18 -16 -33 -21 -33
-12 0 -11 -31 0 -49 7 -10 18 5 42 55 38 78 103 189 129 219 9 11 24 38 34 60
19 44 17 42 82 157 67 119 164 316 164 334 0 3 8 18 18 32 22 32 75 152 70
157 -2 2 -59 -103 -126 -233z"/>
<path d="M4130 5581 c-8 -5 -87 -32 -175 -61 -88 -28 -178 -59 -201 -70 -41
-18 -41 -19 -47 -82 -3 -34 -4 -64 -3 -65 5 -5 360 99 389 114 32 16 54 9 37
-12 -7 -8 -10 -44 -9 -86 2 -69 1 -73 -22 -80 -146 -43 -220 -67 -305 -100
l-101 -40 -7 -60 c-4 -34 -6 -63 -4 -65 4 -3 334 86 392 106 25 8 27 8 21 -8
-4 -9 -9 -51 -12 -92 l-6 -75 -91 -29 c-50 -15 -98 -30 -106 -33 -8 -3 -25 -5
-37 -4 -11 1 -24 -3 -28 -8 -3 -6 -18 -11 -32 -11 -18 0 -24 -4 -19 -15 4 -11
-2 -15 -22 -16 -24 -1 -23 -2 8 -9 l35 -7 -33 -2 c-18 0 -31 -5 -28 -10 3 -5
-4 -11 -16 -14 -12 -4 -25 -1 -29 4 -13 22 -28 -32 -34 -129 -3 -37 -9 -119
-14 -182 -5 -63 -8 -116 -7 -118 5 -4 271 67 366 97 l85 28 13 194 c7 107 20
248 29 314 8 66 19 183 24 260 4 77 11 193 15 258 7 116 5 126 -26 108z"/>
<path d="M1975 4874 c-6 -8 -66 -35 -135 -58 -117 -40 -247 -92 -261 -105 -4
-3 -9 -37 -12 -74 -4 -60 -3 -68 12 -64 9 3 88 26 176 52 88 26 171 50 184 53
l24 5 -7 -79 c-4 -43 -12 -81 -17 -85 -6 -3 -97 -34 -204 -69 l-194 -64 -7
-63 c-3 -35 -4 -66 -1 -69 6 -7 303 70 353 91 45 18 63 20 46 3 -7 -7 -12 -36
-12 -64 0 -29 -5 -56 -11 -59 -6 -4 -8 -14 -5 -22 3 -8 2 -11 -3 -8 -5 3 -12
1 -16 -5 -3 -5 -17 -10 -31 -10 -14 0 -46 -11 -72 -25 -26 -14 -52 -25 -58
-25 -7 0 -25 -7 -40 -15 -16 -8 -41 -15 -56 -15 -16 0 -28 -4 -28 -10 0 -5 -8
-10 -18 -10 -11 0 -27 -9 -37 -20 -26 -28 -1 -35 56 -16 77 27 67 16 -16 -18
l-80 -32 -3 -60 c-1 -32 -8 -122 -15 -199 -7 -77 -13 -141 -12 -142 1 -4 253
65 311 85 111 38 112 39 119 96 15 129 27 291 29 401 2 66 11 190 20 275 9 85
23 213 31 285 13 128 10 171 -10 139z"/>
<path d="M7541 3820 c-2 -50 -5 -60 -12 -45 -8 17 -8 15 -4 -7 5 -25 2 -28
-20 -28 -16 0 -25 -6 -25 -15 0 -41 -90 -14 -90 28 -1 12 -7 36 -14 52 -12 29
-13 28 -8 -22 11 -123 -32 -205 -144 -280 -49 -32 -64 -37 -132 -41 -65 -4
-85 -1 -118 16 -48 24 -73 51 -83 88 -8 31 -19 38 -41 24 -12 -7 -12 -12 -2
-22 6 -6 12 -20 12 -30 0 -10 5 -18 10 -18 6 0 10 -9 10 -19 0 -11 5 -23 10
-26 15 -9 12 -37 -2 -32 -7 2 -12 12 -10 21 3 14 -4 17 -35 16 -72 -4 -80 -1
-85 24 -3 14 0 30 5 35 8 8 7 11 -2 11 -7 0 -10 4 -7 8 3 5 -8 6 -25 4 -16 -2
-29 -8 -29 -11 0 -14 42 -136 55 -161 22 -41 77 -92 123 -112 62 -28 172 -34
256 -14 92 22 167 66 247 146 127 125 172 231 166 386 -3 80 -3 82 -6 24z"/>
<path d="M6035 4220 c-50 -25 -123 -98 -131 -131 -7 -28 -19 -225 -34 -544
l-11 -230 36 -32 c29 -28 42 -33 82 -33 82 0 184 73 219 156 9 21 17 141 25
382 13 388 13 396 -46 432 -41 25 -89 25 -140 0z"/>
<path d="M6442 3663 c-1 -12 -6 -24 -11 -28 -5 -3 -15 -30 -22 -60 -12 -55
-12 -55 -50 -55 -20 0 -40 -6 -43 -12 -4 -7 -4 -3 -2 10 2 12 0 20 -5 16 -5
-3 -9 12 -9 32 0 61 -8 35 -19 -63 -12 -108 -37 -160 -109 -224 -100 -89 -200
-113 -294 -72 -59 27 -79 58 -88 136 -7 59 -7 60 -9 17 -2 -35 -4 -41 -11 -25
-7 17 -9 15 -9 -12 -1 -19 -6 -33 -13 -33 -7 0 -23 -3 -34 -6 -17 -4 -26 2
-43 29 -18 29 -21 51 -23 143 l-1 109 -8 -90 c-4 -49 -7 -131 -8 -181 -1 -78
2 -97 25 -141 48 -97 162 -173 259 -173 112 1 259 74 371 187 122 122 169 248
161 433 -1 47 -4 75 -5 63z"/>
<path d="M3686 3109 c-3 -17 -6 -61 -6 -98 0 -36 -9 -189 -21 -339 -12 -150
-20 -275 -17 -277 2 -3 47 7 99 21 93 26 375 100 497 132 l62 16 2 78 c1 43 2
86 2 96 1 10 -5 15 -14 13 -186 -52 -395 -105 -449 -115 l-34 -6 7 132 c4 73
10 172 14 220 4 47 4 84 1 82 -4 -2 -10 -48 -14 -102 -7 -94 -23 -159 -26
-102 l-1 25 -8 -25 c-4 -14 -8 -20 -9 -14 -1 6 -12 9 -26 6 -19 -3 -25 0 -26
14 0 18 -1 18 -9 -1 -11 -27 -15 24 -11 168 3 107 -1 134 -13 76z"/>
<path d="M3392 3029 c-1 -31 -5 -92 -9 -135 -7 -75 -8 -77 -14 -34 l-6 45 -1
-52 c-2 -46 -5 -53 -22 -53 -13 0 -20 -7 -20 -20 0 -13 -7 -20 -20 -20 -11 0
-20 -6 -20 -12 0 -7 -5 -5 -11 5 -7 11 -11 74 -11 150 1 171 -13 133 -28 -78
-6 -88 -17 -180 -26 -205 -32 -97 -143 -203 -226 -216 -58 -10 -143 20 -174
61 -36 48 -44 94 -34 194 12 120 18 265 10 249 -4 -7 -11 -76 -14 -153 -7
-126 -22 -250 -25 -201 -1 17 -2 18 -13 4 -7 -8 -27 -21 -45 -27 -19 -8 -34
-22 -36 -34 -4 -19 -4 -18 -6 4 -1 16 -7 26 -17 26 -14 0 -16 -9 -11 -57 9
-103 63 -192 141 -232 26 -13 67 -23 113 -26 138 -9 289 63 386 183 93 117
115 191 137 465 7 80 10 163 8 185 -4 34 -5 32 -6 -16z"/>
<path d="M2320 2468 c0 -73 -16 -123 -50 -161 -29 -31 -29 -31 -30 -8 0 19 -4
23 -24 19 -20 -4 -24 -1 -21 14 2 10 0 29 -4 41 -8 19 -10 17 -16 -18 -24
-138 -78 -227 -170 -277 -58 -32 -138 -37 -185 -13 -38 20 -70 62 -71 94 0 23
-1 24 -8 6 -5 -11 -12 -44 -16 -72 -4 -30 -12 -53 -18 -53 -27 0 -88 28 -103
46 -14 18 -14 16 -8 -26 8 -58 25 -91 72 -136 45 -43 75 -60 135 -73 93 -21
248 44 356 150 79 78 123 149 145 234 16 63 33 285 22 285 -3 0 -6 -24 -6 -52z"/>
<path d="M8889 2077 c-19 -12 -43 -38 -53 -58 -19 -34 -19 -37 -1 -93 22 -69
17 -76 -62 -87 -61 -8 -104 -41 -102 -77 1 -16 2 -16 6 0 6 22 63 48 105 48
62 0 105 -64 82 -124 -11 -29 -71 -58 -104 -51 -34 7 -80 57 -80 86 0 11 -4
18 -9 15 -17 -11 7 -79 38 -110 23 -22 39 -30 64 -29 81 2 165 83 143 138 -3
8 -6 19 -8 23 -1 4 -8 13 -15 21 -26 25 -11 39 67 64 102 34 125 45 122 61 -2
9 1 16 5 15 20 -3 31 2 37 17 5 14 4 15 -8 5 -16 -14 -36 -7 -36 12 0 22 -50
120 -68 133 -27 21 -85 17 -123 -9z m120 -13 c26 -22 31 -33 31 -71 0 -36 -6
-50 -29 -73 -54 -55 -113 -50 -151 12 -35 57 -23 104 33 138 43 27 80 25 116
-6z"/>
<path d="M8410 1911 c0 -17 -4 -32 -9 -35 -23 -15 -687 -236 -707 -236 -33 0
-36 -24 -14 -108 38 -151 76 -242 99 -242 8 0 107 31 220 69 113 39 271 89
351 112 159 46 218 71 227 96 4 10 -7 58 -25 108 -17 49 -39 121 -48 158 -12
48 -24 73 -42 87 -35 28 -52 25 -52 -9z"/>
<path d="M9074 1834 c20 -77 19 -84 -3 -84 -11 0 -21 -4 -21 -10 0 -5 -10 -10
-23 -10 -12 0 -28 -9 -35 -20 -7 -11 -18 -20 -25 -20 -8 0 -7 3 3 10 8 5 11
12 7 16 -9 10 -20 -2 -22 -24 -1 -9 -8 -36 -15 -58 -10 -33 -10 -49 0 -78 14
-45 43 -65 100 -71 34 -3 47 1 68 21 15 13 30 24 34 24 8 0 28 66 28 95 0 12
-16 38 -35 58 -38 40 -48 74 -17 62 9 -4 36 -10 59 -12 40 -5 46 -2 83 35 27
27 40 48 40 67 l0 28 -23 -34 c-42 -63 -119 -80 -156 -33 -11 14 -23 34 -26
45 -10 30 -28 23 -21 -7z m45 -171 c20 -13 23 -21 18 -56 -7 -55 -46 -87 -103
-87 -46 0 -60 12 -74 60 -24 83 76 135 159 83z"/>
<path d="M7215 1474 c-69 -36 -80 -70 -49 -160 8 -25 13 -48 11 -50 -3 -3 -37
-15 -77 -27 -40 -12 -78 -30 -84 -39 -11 -18 12 -108 37 -143 14 -18 16 -18
86 8 40 15 76 27 80 27 5 0 14 -27 20 -60 7 -33 22 -72 34 -86 21 -24 24 -25
72 -14 85 18 105 29 105 59 0 14 -9 55 -20 91 -11 36 -20 70 -20 76 0 7 17 15
38 19 20 3 56 15 80 25 39 18 42 22 42 57 0 21 -9 57 -20 81 -23 50 -38 52
-123 18 -31 -13 -59 -21 -61 -17 -2 3 -7 26 -11 50 -9 52 -51 101 -87 101 -13
0 -36 -7 -53 -16z"/>
<path d="M8605 1354 c-53 -18 -101 -68 -116 -122 l-13 -46 39 -33 c38 -32 62
-39 130 -34 87 7 146 121 98 191 -33 48 -82 64 -138 44z"/>
</g>
</svg>
